<svg xmlns="http://www.w3.org/2000/svg" width="1920" height="1080" viewBox="0 0 1920 1080" preserveAspectRatio="none">
  <defs>
    <linearGradient id="bg" x1="0" y1="0" x2="1" y2="1">
      <stop offset="0" stop-color="#0ea5e9"/>
      <stop offset="1" stop-color="#1e293b"/>
    </linearGradient>
    <linearGradient id="w" x1="0" y1="0" x2="1" y2="0">
      <stop offset="0" stop-color="#ffffff" stop-opacity="0.18"/>
      <stop offset="1" stop-color="#ffffff" stop-opacity="0.03"/>
    </linearGradient>
  </defs>
  <rect width="1920" height="1080" fill="url(#bg)"/>
  <path d="M0 720 C 320 640 640 800 960 720 C 1280 640 1600 800 1920 720 L1920 1080 L0 1080 Z" fill="url(#w)"/>
  <path d="M0 560 C 320 480 640 640 960 560 C 1280 480 1600 640 1920 560 L1920 1080 L0 1080 Z" fill="url(#w)" opacity="0.7"/>
  <path d="M0 420 C 320 340 640 500 960 420 C 1280 340 1600 500 1920 420 L1920 1080 L0 1080 Z" fill="url(#w)" opacity="0.45"/>
</svg>
